<svg xmlns="http://www.w3.org/2000/svg" xmlns:xlink="http://www.w3.org/1999/xlink" width="2458" zoomAndPan="magnify" viewBox="0 0 1843.5 383.999986" height="512" preserveAspectRatio="xMidYMid meet" version="1.0"><defs><g/><clipPath id="a99a85f1c0"><path d="M 344.339844 55.5 L 647.039062 55.5 L 647.039062 368.839844 L 344.339844 368.839844 Z M 344.339844 55.5 " clip-rule="nonzero"/></clipPath><clipPath id="662efd9e68"><path d="M 361.585938 55.5 L 629.792969 55.5 C 639.316406 55.5 647.039062 63.21875 647.039062 72.746094 L 647.039062 351.097656 C 647.039062 360.625 639.316406 368.34375 629.792969 368.34375 L 361.585938 368.34375 C 352.0625 368.34375 344.339844 360.625 344.339844 351.097656 L 344.339844 72.746094 C 344.339844 63.21875 352.0625 55.5 361.585938 55.5 Z M 361.585938 55.5 " clip-rule="nonzero"/></clipPath><clipPath id="f6c3f8f664"><path d="M 439.132812 9.203125 L 552.351562 9.203125 L 552.351562 228.894531 L 439.132812 228.894531 Z M 439.132812 9.203125 " clip-rule="nonzero"/></clipPath><clipPath id="e7da03045e"><path d="M 463.109375 192.703125 L 528.269531 192.703125 L 528.269531 258.882812 L 463.109375 258.882812 Z M 463.109375 192.703125 " clip-rule="nonzero"/></clipPath><clipPath id="c7bf44707d"><path d="M 495.691406 192.703125 C 477.695312 192.703125 463.109375 207.511719 463.109375 225.777344 C 463.109375 244.039062 477.695312 258.847656 495.691406 258.847656 C 513.683594 258.847656 528.269531 244.039062 528.269531 225.777344 C 528.269531 207.511719 513.683594 192.703125 495.691406 192.703125 Z M 495.691406 192.703125 " clip-rule="nonzero"/></clipPath></defs><g clip-path="url(#a99a85f1c0)"><g clip-path="url(#662efd9e68)"><path fill="#270949" d="M 344.339844 55.5 L 647.039062 55.5 L 647.039062 368.839844 L 344.339844 368.839844 Z M 344.339844 55.5 " fill-opacity="1" fill-rule="nonzero"/></g></g><g fill="#ffffff" fill-opacity="1"><g transform="translate(384.958261, 326.787918)"><g><path d="M 199.140625 -202.90625 L 199.140625 -84.0625 C 199.140625 -57.582031 191.3125 -36.707031 175.65625 -21.4375 C 160.007812 -6.175781 138.460938 1.453125 111.015625 1.453125 C 83.578125 1.453125 61.984375 -6.175781 46.234375 -21.4375 C 30.484375 -36.707031 22.609375 -57.582031 22.609375 -84.0625 L 22.609375 -202.90625 L 56.8125 -202.90625 L 56.8125 -84.0625 C 56.8125 -67.0625 61.691406 -53.679688 71.453125 -43.921875 C 81.210938 -34.160156 94.5 -29.28125 111.3125 -29.28125 C 127.925781 -29.28125 141.015625 -34.109375 150.578125 -43.765625 C 160.148438 -53.429688 164.9375 -66.863281 164.9375 -84.0625 L 164.9375 -202.90625 Z M 199.140625 -202.90625 "/></g></g></g><g clip-path="url(#f6c3f8f664)"><path fill="#ff3d00" d="M 552.246094 84.914062 L 528.039062 84.914062 L 528.039062 228.792969 L 463.339844 228.792969 L 463.339844 84.914062 L 439.132812 84.914062 L 495.691406 9.351562 Z M 552.246094 84.914062 " fill-opacity="1" fill-rule="nonzero"/></g><g clip-path="url(#e7da03045e)"><g clip-path="url(#c7bf44707d)"><path fill="#ff3d00" d="M 463.109375 192.703125 L 528.269531 192.703125 L 528.269531 258.882812 L 463.109375 258.882812 Z M 463.109375 192.703125 " fill-opacity="1" fill-rule="nonzero"/></g></g><g fill="#ff3d00" fill-opacity="1"><g transform="translate(662.385558, 279.303867)"><g><path d="M 162.953125 -162.953125 L 162.953125 -68.4375 C 162.953125 -46.863281 156.273438 -29.753906 142.921875 -17.109375 C 129.578125 -4.460938 111.5 1.859375 88.6875 1.859375 C 65.71875 1.859375 47.441406 -4.460938 33.859375 -17.109375 C 20.285156 -29.753906 13.5 -46.863281 13.5 -68.4375 L 13.5 -162.953125 L 54.9375 -162.953125 L 54.9375 -68.4375 C 54.9375 -57.570312 58.078125 -48.921875 64.359375 -42.484375 C 70.648438 -36.046875 78.835938 -32.828125 88.921875 -32.828125 C 98.859375 -32.828125 106.8125 -36.003906 112.78125 -42.359375 C 118.757812 -48.722656 121.75 -57.414062 121.75 -68.4375 L 121.75 -162.953125 Z M 162.953125 -162.953125 "/></g></g></g><g fill="#ff3d00" fill-opacity="1"><g transform="translate(838.815922, 279.303867)"><g><path d="M 94.96875 -126.859375 C 112.664062 -126.859375 126.90625 -120.921875 137.6875 -109.046875 C 148.476562 -97.179688 153.875 -81.550781 153.875 -62.15625 C 153.875 -43.0625 148.59375 -27.695312 138.03125 -16.0625 C 127.476562 -4.425781 113.4375 1.390625 95.90625 1.390625 C 79.457031 1.390625 66.65625 -4.660156 57.5 -16.765625 L 57.5 45.15625 L 17.21875 45.15625 L 17.21875 -125.46875 L 57.5 -125.46875 L 57.5 -108.9375 C 66.8125 -120.882812 79.300781 -126.859375 94.96875 -126.859375 Z M 85.203125 -30.5 C 93.578125 -30.5 100.363281 -33.5625 105.5625 -39.6875 C 110.757812 -45.820312 113.359375 -53.695312 113.359375 -63.3125 C 113.359375 -72.9375 110.757812 -80.773438 105.5625 -86.828125 C 100.363281 -92.878906 93.578125 -95.90625 85.203125 -95.90625 C 77.128906 -95.90625 70.492188 -92.878906 65.296875 -86.828125 C 60.097656 -80.773438 57.5 -72.9375 57.5 -63.3125 C 57.5 -53.539062 60.054688 -45.628906 65.171875 -39.578125 C 70.296875 -33.523438 76.972656 -30.5 85.203125 -30.5 Z M 85.203125 -30.5 "/></g></g></g><g fill="#ff3d00" fill-opacity="1"><g transform="translate(998.255036, 279.303867)"><g><path d="M 94.96875 -126.859375 C 112.664062 -126.859375 126.90625 -120.921875 137.6875 -109.046875 C 148.476562 -97.179688 153.875 -81.550781 153.875 -62.15625 C 153.875 -43.0625 148.59375 -27.695312 138.03125 -16.0625 C 127.476562 -4.425781 113.4375 1.390625 95.90625 1.390625 C 79.457031 1.390625 66.65625 -4.660156 57.5 -16.765625 L 57.5 45.15625 L 17.21875 45.15625 L 17.21875 -125.46875 L 57.5 -125.46875 L 57.5 -108.9375 C 66.8125 -120.882812 79.300781 -126.859375 94.96875 -126.859375 Z M 85.203125 -30.5 C 93.578125 -30.5 100.363281 -33.5625 105.5625 -39.6875 C 110.757812 -45.820312 113.359375 -53.695312 113.359375 -63.3125 C 113.359375 -72.9375 110.757812 -80.773438 105.5625 -86.828125 C 100.363281 -92.878906 93.578125 -95.90625 85.203125 -95.90625 C 77.128906 -95.90625 70.492188 -92.878906 65.296875 -86.828125 C 60.097656 -80.773438 57.5 -72.9375 57.5 -63.3125 C 57.5 -53.539062 60.054688 -45.628906 65.171875 -39.578125 C 70.296875 -33.523438 76.972656 -30.5 85.203125 -30.5 Z M 85.203125 -30.5 "/></g></g></g><g fill="#ff3d00" fill-opacity="1"><g transform="translate(1157.69415, 279.303867)"><g><path d="M 71 -126.859375 C 92.726562 -126.859375 109.0625 -120.1875 120 -106.84375 C 130.9375 -93.5 135.707031 -75.1875 134.3125 -51.90625 L 46.09375 -51.90625 C 48.101562 -44.457031 51.671875 -38.710938 56.796875 -34.671875 C 61.921875 -30.640625 68.207031 -28.625 75.65625 -28.625 C 87.132812 -28.625 97.144531 -32.894531 105.6875 -41.4375 L 126.859375 -20.71875 C 113.359375 -5.976562 95.125 1.390625 72.15625 1.390625 C 51.832031 1.390625 35.65625 -4.425781 23.625 -16.0625 C 11.601562 -27.695312 5.59375 -43.140625 5.59375 -62.390625 C 5.59375 -81.785156 11.601562 -97.378906 23.625 -109.171875 C 35.65625 -120.960938 51.445312 -126.859375 71 -126.859375 Z M 45.390625 -73.5625 L 95.671875 -73.5625 C 95.671875 -81.164062 93.457031 -87.296875 89.03125 -91.953125 C 84.613281 -96.609375 78.757812 -98.9375 71.46875 -98.9375 C 64.632812 -98.9375 58.890625 -96.644531 54.234375 -92.0625 C 49.578125 -87.488281 46.628906 -81.320312 45.390625 -73.5625 Z M 45.390625 -73.5625 "/></g></g></g><g fill="#ff3d00" fill-opacity="1"><g transform="translate(1297.814328, 279.303867)"><g><path d="M 56.328125 -125.46875 L 56.328125 -104.28125 C 65.179688 -119.332031 78.757812 -127.015625 97.0625 -127.328125 L 97.0625 -91.015625 C 85.582031 -92.097656 76.195312 -90.195312 68.90625 -85.3125 C 61.613281 -80.425781 57.421875 -73.484375 56.328125 -64.484375 L 56.328125 0 L 16.0625 0 L 16.0625 -125.46875 Z M 56.328125 -125.46875 "/></g></g></g><g fill="#ff3d00" fill-opacity="1"><g transform="translate(1397.201884, 279.303867)"><g><path d="M 77.75 -142.6875 C 73.5625 -142.84375 70.109375 -141.71875 67.390625 -139.3125 C 64.671875 -136.914062 63.3125 -133.460938 63.3125 -128.953125 L 63.3125 -119.875 L 91.71875 -119.875 L 91.71875 -93.34375 L 63.3125 -93.34375 L 63.3125 0 L 23.515625 0 L 23.515625 -93.34375 L 6.515625 -93.34375 L 6.515625 -119.875 L 23.515625 -119.875 L 23.515625 -131.515625 C 23.515625 -145.015625 28.015625 -155.566406 37.015625 -163.171875 C 46.015625 -170.773438 57.5 -174.578125 71.46875 -174.578125 C 84.8125 -174.578125 96.523438 -171.628906 106.609375 -165.734375 L 92.421875 -137.578125 C 87.765625 -140.984375 82.875 -142.6875 77.75 -142.6875 Z M 77.75 -142.6875 "/></g></g></g><g fill="#ff3d00" fill-opacity="1"><g transform="translate(1487.046364, 279.303867)"><g><path d="M 136.640625 -125.46875 L 82.40625 13.03125 C 73.09375 35.6875 56.953125 47.015625 33.984375 47.015625 C 20.640625 47.015625 8.457031 42.75 -2.5625 34.21875 L 14.203125 6.75 C 19.785156 11.25 25.296875 13.5 30.734375 13.5 C 37.867188 13.5 43.066406 10.160156 46.328125 3.484375 L 49.34375 -2.796875 L -2.796875 -125.46875 L 38.640625 -125.46875 L 69.375 -42.140625 L 96.609375 -125.46875 Z M 136.640625 -125.46875 "/></g></g></g></svg>