<svg xmlns="http://www.w3.org/2000/svg" xmlns:xlink="http://www.w3.org/1999/xlink" width="500" zoomAndPan="magnify" viewBox="0 0 375 374.999991" height="500" preserveAspectRatio="xMidYMid meet" version="1.0"><defs><g/><clipPath id="a3bad36d1c"><path d="M 99 0.078125 L 346.160156 0.078125 L 346.160156 91.039062 L 99 91.039062 Z M 99 0.078125 " clip-rule="nonzero"/></clipPath><clipPath id="b2d33f52db"><rect x="0" width="248" y="0" height="92"/></clipPath><clipPath id="4ffed73cf9"><path d="M 0.960938 0.835938 L 95 0.835938 L 95 90.164062 L 0.960938 90.164062 Z M 0.960938 0.835938 " clip-rule="nonzero"/></clipPath><clipPath id="3e50818818"><path d="M 27.210938 0.835938 L 68.621094 0.835938 C 75.582031 0.835938 82.257812 3.601562 87.183594 8.523438 C 92.105469 13.445312 94.871094 20.125 94.871094 27.085938 L 94.871094 63.914062 C 94.871094 70.875 92.105469 77.554688 87.183594 82.476562 C 82.257812 87.398438 75.582031 90.164062 68.621094 90.164062 L 27.210938 90.164062 C 20.25 90.164062 13.570312 87.398438 8.648438 82.476562 C 3.726562 77.554688 0.960938 70.875 0.960938 63.914062 L 0.960938 27.085938 C 0.960938 20.125 3.726562 13.445312 8.648438 8.523438 C 13.570312 3.601562 20.25 0.835938 27.210938 0.835938 Z M 27.210938 0.835938 " clip-rule="nonzero"/></clipPath><clipPath id="0f743c1f35"><path d="M 0.960938 0.835938 L 94.828125 0.835938 L 94.828125 90.164062 L 0.960938 90.164062 Z M 0.960938 0.835938 " clip-rule="nonzero"/></clipPath><clipPath id="006cfdca3f"><path d="M 27.210938 0.835938 L 68.621094 0.835938 C 75.582031 0.835938 82.257812 3.601562 87.183594 8.523438 C 92.105469 13.445312 94.871094 20.125 94.871094 27.085938 L 94.871094 63.914062 C 94.871094 70.875 92.105469 77.554688 87.183594 82.476562 C 82.257812 87.398438 75.582031 90.164062 68.621094 90.164062 L 27.210938 90.164062 C 20.25 90.164062 13.570312 87.398438 8.648438 82.476562 C 3.726562 77.554688 0.960938 70.875 0.960938 63.914062 L 0.960938 27.085938 C 0.960938 20.125 3.726562 13.445312 8.648438 8.523438 C 13.570312 3.601562 20.25 0.835938 27.210938 0.835938 Z M 27.210938 0.835938 " clip-rule="nonzero"/></clipPath><linearGradient x1="0.00149551" gradientTransform="matrix(0.348945, 0, 0, 0.348945, 0.959617, 0.835059)" y1="128" x2="269.001501" gradientUnits="userSpaceOnUse" y2="128" id="0678101c4c"><stop stop-opacity="1" stop-color="rgb(12.939453%, 58.81958%, 95.289612%)" offset="0"/><stop stop-opacity="1" stop-color="rgb(12.889099%, 58.702087%, 95.181274%)" offset="0.0078125"/><stop stop-opacity="1" stop-color="rgb(12.786865%, 58.470154%, 94.967651%)" offset="0.015625"/><stop stop-opacity="1" stop-color="rgb(12.686157%, 58.236694%, 94.752502%)" offset="0.0234375"/><stop stop-opacity="1" stop-color="rgb(12.585449%, 58.004761%, 94.538879%)" offset="0.03125"/><stop stop-opacity="1" stop-color="rgb(12.484741%, 57.771301%, 94.32373%)" offset="0.0390625"/><stop stop-opacity="1" stop-color="rgb(12.382507%, 57.539368%, 94.110107%)" offset="0.046875"/><stop stop-opacity="1" stop-color="rgb(12.281799%, 57.305908%, 93.894958%)" offset="0.0546875"/><stop stop-opacity="1" stop-color="rgb(12.181091%, 57.073975%, 93.681335%)" offset="0.0625"/><stop stop-opacity="1" stop-color="rgb(12.080383%, 56.840515%, 93.466187%)" offset="0.0703125"/><stop stop-opacity="1" stop-color="rgb(11.979675%, 56.608582%, 93.252563%)" offset="0.078125"/><stop stop-opacity="1" stop-color="rgb(11.877441%, 56.375122%, 93.037415%)" offset="0.0859375"/><stop stop-opacity="1" stop-color="rgb(11.776733%, 56.143188%, 92.823792%)" offset="0.09375"/><stop stop-opacity="1" stop-color="rgb(11.676025%, 55.909729%, 92.608643%)" offset="0.101562"/><stop stop-opacity="1" stop-color="rgb(11.575317%, 55.677795%, 92.39502%)" offset="0.109375"/><stop stop-opacity="1" stop-color="rgb(11.473083%, 55.444336%, 92.179871%)" offset="0.117188"/><stop stop-opacity="1" stop-color="rgb(11.372375%, 55.212402%, 91.966248%)" offset="0.125"/><stop stop-opacity="1" stop-color="rgb(11.271667%, 54.978943%, 91.752625%)" offset="0.132812"/><stop stop-opacity="1" stop-color="rgb(11.170959%, 54.747009%, 91.537476%)" offset="0.140625"/><stop stop-opacity="1" stop-color="rgb(11.070251%, 54.51355%, 91.323853%)" offset="0.148437"/><stop stop-opacity="1" stop-color="rgb(10.968018%, 54.281616%, 91.108704%)" offset="0.15625"/><stop stop-opacity="1" stop-color="rgb(10.86731%, 54.048157%, 90.895081%)" offset="0.164062"/><stop stop-opacity="1" stop-color="rgb(10.766602%, 53.816223%, 90.679932%)" offset="0.171875"/><stop stop-opacity="1" stop-color="rgb(10.665894%, 53.582764%, 90.466309%)" offset="0.179687"/><stop stop-opacity="1" stop-color="rgb(10.565186%, 53.35083%, 90.25116%)" offset="0.1875"/><stop stop-opacity="1" stop-color="rgb(10.462952%, 53.117371%, 90.037537%)" offset="0.195312"/><stop stop-opacity="1" stop-color="rgb(10.362244%, 52.885437%, 89.822388%)" offset="0.203125"/><stop stop-opacity="1" stop-color="rgb(10.261536%, 52.651978%, 89.608765%)" offset="0.210937"/><stop stop-opacity="1" stop-color="rgb(10.160828%, 52.420044%, 89.393616%)" offset="0.21875"/><stop stop-opacity="1" stop-color="rgb(10.058594%, 52.186584%, 89.179993%)" offset="0.226562"/><stop stop-opacity="1" stop-color="rgb(9.957886%, 51.954651%, 88.964844%)" offset="0.234375"/><stop stop-opacity="1" stop-color="rgb(9.857178%, 51.721191%, 88.751221%)" offset="0.242187"/><stop stop-opacity="1" stop-color="rgb(9.75647%, 51.489258%, 88.536072%)" offset="0.25"/><stop stop-opacity="1" stop-color="rgb(9.655762%, 51.255798%, 88.322449%)" offset="0.257812"/><stop stop-opacity="1" stop-color="rgb(9.553528%, 51.023865%, 88.1073%)" offset="0.265625"/><stop stop-opacity="1" stop-color="rgb(9.45282%, 50.790405%, 87.893677%)" offset="0.273438"/><stop stop-opacity="1" stop-color="rgb(9.352112%, 50.558472%, 87.678528%)" offset="0.28125"/><stop stop-opacity="1" stop-color="rgb(9.251404%, 50.325012%, 87.464905%)" offset="0.289062"/><stop stop-opacity="1" stop-color="rgb(9.14917%, 50.093079%, 87.251282%)" offset="0.296875"/><stop stop-opacity="1" stop-color="rgb(9.048462%, 49.859619%, 87.036133%)" offset="0.304688"/><stop stop-opacity="1" stop-color="rgb(8.947754%, 49.627686%, 86.82251%)" offset="0.3125"/><stop stop-opacity="1" stop-color="rgb(8.847046%, 49.394226%, 86.607361%)" offset="0.320312"/><stop stop-opacity="1" stop-color="rgb(8.746338%, 49.162292%, 86.393738%)" offset="0.328125"/><stop stop-opacity="1" stop-color="rgb(8.644104%, 48.928833%, 86.178589%)" offset="0.335938"/><stop stop-opacity="1" stop-color="rgb(8.543396%, 48.696899%, 85.964966%)" offset="0.34375"/><stop stop-opacity="1" stop-color="rgb(8.442688%, 48.46344%, 85.749817%)" offset="0.351562"/><stop stop-opacity="1" stop-color="rgb(8.34198%, 48.231506%, 85.536194%)" offset="0.359375"/><stop stop-opacity="1" stop-color="rgb(8.239746%, 47.998047%, 85.321045%)" offset="0.367188"/><stop stop-opacity="1" stop-color="rgb(8.139038%, 47.766113%, 85.107422%)" offset="0.375"/><stop stop-opacity="1" stop-color="rgb(8.03833%, 47.532654%, 84.892273%)" offset="0.382812"/><stop stop-opacity="1" stop-color="rgb(7.937622%, 47.299194%, 84.67865%)" offset="0.390625"/><stop stop-opacity="1" stop-color="rgb(7.836914%, 47.067261%, 84.463501%)" offset="0.398438"/><stop stop-opacity="1" stop-color="rgb(7.73468%, 46.833801%, 84.249878%)" offset="0.40625"/><stop stop-opacity="1" stop-color="rgb(7.633972%, 46.601868%, 84.034729%)" offset="0.414062"/><stop stop-opacity="1" stop-color="rgb(7.533264%, 46.368408%, 83.821106%)" offset="0.421875"/><stop stop-opacity="1" stop-color="rgb(7.432556%, 46.136475%, 83.605957%)" offset="0.429688"/><stop stop-opacity="1" stop-color="rgb(7.330322%, 45.903015%, 83.392334%)" offset="0.4375"/><stop stop-opacity="1" stop-color="rgb(7.229614%, 45.671082%, 83.177185%)" offset="0.445312"/><stop stop-opacity="1" stop-color="rgb(7.128906%, 45.437622%, 82.963562%)" offset="0.453125"/><stop stop-opacity="1" stop-color="rgb(7.028198%, 45.205688%, 82.749939%)" offset="0.460938"/><stop stop-opacity="1" stop-color="rgb(6.92749%, 44.972229%, 82.53479%)" offset="0.46875"/><stop stop-opacity="1" stop-color="rgb(6.825256%, 44.740295%, 82.321167%)" offset="0.476562"/><stop stop-opacity="1" stop-color="rgb(6.724548%, 44.506836%, 82.106018%)" offset="0.484375"/><stop stop-opacity="1" stop-color="rgb(6.62384%, 44.274902%, 81.892395%)" offset="0.492188"/><stop stop-opacity="1" stop-color="rgb(6.523132%, 44.041443%, 81.677246%)" offset="0.5"/><stop stop-opacity="1" stop-color="rgb(6.420898%, 43.809509%, 81.463623%)" offset="0.507812"/><stop stop-opacity="1" stop-color="rgb(6.32019%, 43.57605%, 81.248474%)" offset="0.515625"/><stop stop-opacity="1" stop-color="rgb(6.219482%, 43.344116%, 81.034851%)" offset="0.523438"/><stop stop-opacity="1" stop-color="rgb(6.118774%, 43.110657%, 80.819702%)" offset="0.53125"/><stop stop-opacity="1" stop-color="rgb(6.018066%, 42.878723%, 80.606079%)" offset="0.539062"/><stop stop-opacity="1" stop-color="rgb(5.915833%, 42.645264%, 80.39093%)" offset="0.546875"/><stop stop-opacity="1" stop-color="rgb(5.815125%, 42.41333%, 80.177307%)" offset="0.554688"/><stop stop-opacity="1" stop-color="rgb(5.714417%, 42.179871%, 79.962158%)" offset="0.5625"/><stop stop-opacity="1" stop-color="rgb(5.613708%, 41.947937%, 79.748535%)" offset="0.570313"/><stop stop-opacity="1" stop-color="rgb(5.511475%, 41.714478%, 79.533386%)" offset="0.578125"/><stop stop-opacity="1" stop-color="rgb(5.410767%, 41.482544%, 79.319763%)" offset="0.585938"/><stop stop-opacity="1" stop-color="rgb(5.310059%, 41.249084%, 79.104614%)" offset="0.59375"/><stop stop-opacity="1" stop-color="rgb(5.209351%, 41.017151%, 78.890991%)" offset="0.601562"/><stop stop-opacity="1" stop-color="rgb(5.108643%, 40.783691%, 78.675842%)" offset="0.609375"/><stop stop-opacity="1" stop-color="rgb(5.006409%, 40.551758%, 78.462219%)" offset="0.617188"/><stop stop-opacity="1" stop-color="rgb(4.905701%, 40.318298%, 78.24707%)" offset="0.625"/><stop stop-opacity="1" stop-color="rgb(4.804993%, 40.086365%, 78.033447%)" offset="0.632813"/><stop stop-opacity="1" stop-color="rgb(4.704285%, 39.852905%, 77.819824%)" offset="0.640625"/><stop stop-opacity="1" stop-color="rgb(4.602051%, 39.620972%, 77.604675%)" offset="0.648438"/><stop stop-opacity="1" stop-color="rgb(4.501343%, 39.387512%, 77.391052%)" offset="0.65625"/><stop stop-opacity="1" stop-color="rgb(4.400635%, 39.155579%, 77.175903%)" offset="0.664062"/><stop stop-opacity="1" stop-color="rgb(4.299927%, 38.922119%, 76.96228%)" offset="0.671875"/><stop stop-opacity="1" stop-color="rgb(4.199219%, 38.690186%, 76.747131%)" offset="0.679688"/><stop stop-opacity="1" stop-color="rgb(4.096985%, 38.456726%, 76.533508%)" offset="0.6875"/><stop stop-opacity="1" stop-color="rgb(3.996277%, 38.224792%, 76.318359%)" offset="0.695313"/><stop stop-opacity="1" stop-color="rgb(3.895569%, 37.991333%, 76.104736%)" offset="0.703125"/><stop stop-opacity="1" stop-color="rgb(3.794861%, 37.759399%, 75.889587%)" offset="0.710938"/><stop stop-opacity="1" stop-color="rgb(3.692627%, 37.52594%, 75.675964%)" offset="0.71875"/><stop stop-opacity="1" stop-color="rgb(3.591919%, 37.294006%, 75.460815%)" offset="0.726562"/><stop stop-opacity="1" stop-color="rgb(3.491211%, 37.060547%, 75.247192%)" offset="0.734375"/><stop stop-opacity="1" stop-color="rgb(3.390503%, 36.828613%, 75.032043%)" offset="0.742188"/><stop stop-opacity="1" stop-color="rgb(3.289795%, 36.595154%, 74.81842%)" offset="0.75"/><stop stop-opacity="1" stop-color="rgb(3.187561%, 36.36322%, 74.603271%)" offset="0.757812"/><stop stop-opacity="1" stop-color="rgb(3.086853%, 36.129761%, 74.389648%)" offset="0.765625"/><stop stop-opacity="1" stop-color="rgb(2.986145%, 35.897827%, 74.1745%)" offset="0.773438"/><stop stop-opacity="1" stop-color="rgb(2.885437%, 35.664368%, 73.960876%)" offset="0.78125"/><stop stop-opacity="1" stop-color="rgb(2.783203%, 35.432434%, 73.745728%)" offset="0.789062"/><stop stop-opacity="1" stop-color="rgb(2.682495%, 35.198975%, 73.532104%)" offset="0.796875"/><stop stop-opacity="1" stop-color="rgb(2.581787%, 34.967041%, 73.318481%)" offset="0.804688"/><stop stop-opacity="1" stop-color="rgb(2.481079%, 34.733582%, 73.103333%)" offset="0.8125"/><stop stop-opacity="1" stop-color="rgb(2.380371%, 34.501648%, 72.889709%)" offset="0.820312"/><stop stop-opacity="1" stop-color="rgb(2.278137%, 34.268188%, 72.674561%)" offset="0.828125"/><stop stop-opacity="1" stop-color="rgb(2.177429%, 34.036255%, 72.460938%)" offset="0.835938"/><stop stop-opacity="1" stop-color="rgb(2.076721%, 33.802795%, 72.245789%)" offset="0.84375"/><stop stop-opacity="1" stop-color="rgb(1.976013%, 33.570862%, 72.032166%)" offset="0.851562"/><stop stop-opacity="1" stop-color="rgb(1.873779%, 33.337402%, 71.817017%)" offset="0.859375"/><stop stop-opacity="1" stop-color="rgb(1.773071%, 33.105469%, 71.603394%)" offset="0.867188"/><stop stop-opacity="1" stop-color="rgb(1.672363%, 32.872009%, 71.388245%)" offset="0.875"/><stop stop-opacity="1" stop-color="rgb(1.571655%, 32.640076%, 71.174622%)" offset="0.882812"/><stop stop-opacity="1" stop-color="rgb(1.470947%, 32.406616%, 70.959473%)" offset="0.890625"/><stop stop-opacity="1" stop-color="rgb(1.368713%, 32.174683%, 70.74585%)" offset="0.898438"/><stop stop-opacity="1" stop-color="rgb(1.268005%, 31.941223%, 70.530701%)" offset="0.90625"/><stop stop-opacity="1" stop-color="rgb(1.167297%, 31.70929%, 70.317078%)" offset="0.914062"/><stop stop-opacity="1" stop-color="rgb(1.066589%, 31.47583%, 70.101929%)" offset="0.921875"/><stop stop-opacity="1" stop-color="rgb(0.964355%, 31.243896%, 69.888306%)" offset="0.929688"/><stop stop-opacity="1" stop-color="rgb(0.863647%, 31.010437%, 69.673157%)" offset="0.9375"/><stop stop-opacity="1" stop-color="rgb(0.762939%, 30.778503%, 69.459534%)" offset="0.945312"/><stop stop-opacity="1" stop-color="rgb(0.662231%, 30.545044%, 69.244385%)" offset="0.953125"/><stop stop-opacity="1" stop-color="rgb(0.561523%, 30.31311%, 69.030762%)" offset="0.960938"/><stop stop-opacity="1" stop-color="rgb(0.45929%, 30.079651%, 68.815613%)" offset="0.96875"/><stop stop-opacity="1" stop-color="rgb(0.358582%, 29.847717%, 68.60199%)" offset="0.976562"/><stop stop-opacity="1" stop-color="rgb(0.257874%, 29.614258%, 68.388367%)" offset="0.984375"/><stop stop-opacity="1" stop-color="rgb(0.157166%, 29.382324%, 68.173218%)" offset="0.992188"/><stop stop-opacity="1" stop-color="rgb(0.0549316%, 29.148865%, 67.959595%)" offset="1"/></linearGradient><clipPath id="f8fbb53b9a"><rect x="0" width="95" y="0" height="91"/></clipPath><clipPath id="76505f19bc"><rect x="0" width="48" y="0" height="81"/></clipPath><clipPath id="1a5844a714"><path d="M 30.289062 11.003906 L 44.761719 11.003906 L 44.761719 39.949219 L 30.289062 39.949219 Z M 30.289062 11.003906 " clip-rule="nonzero"/></clipPath><clipPath id="e6a6922d76"><rect x="0" width="347" y="0" height="92"/></clipPath></defs><rect x="-37.5" width="450" fill="#ffffff" y="-37.499999" height="449.999989" fill-opacity="1"/><rect x="-37.5" width="450" fill="#ffffff" y="-37.499999" height="449.999989" fill-opacity="1"/><g transform="matrix(1, 0, 0, 1, 10, 142)"><g clip-path="url(#e6a6922d76)"><g clip-path="url(#a3bad36d1c)"><g transform="matrix(1, 0, 0, 1, 99, 0)"><g clip-path="url(#b2d33f52db)"><g fill="#004aad" fill-opacity="1"><g transform="translate(0.396931, 75.214327)"><g><path d="M 5.234375 -52.328125 L 28.03125 -52.328125 C 34.707031 -52.328125 39.890625 -50.742188 43.578125 -47.578125 C 47.265625 -44.410156 49.109375 -39.914062 49.109375 -34.09375 C 49.109375 -27.957031 47.265625 -23.191406 43.578125 -19.796875 C 39.890625 -16.410156 34.707031 -14.71875 28.03125 -14.71875 L 18.53125 -14.71875 L 18.53125 0 L 5.234375 0 Z M 18.53125 -41.859375 L 18.53125 -25.1875 L 27.359375 -25.1875 C 30.296875 -25.1875 32.5625 -25.910156 34.15625 -27.359375 C 35.75 -28.804688 36.546875 -30.898438 36.546875 -33.640625 C 36.546875 -36.328125 35.75 -38.367188 34.15625 -39.765625 C 32.5625 -41.160156 30.296875 -41.859375 27.359375 -41.859375 Z M 18.53125 -41.859375 "/></g></g></g><g fill="#004aad" fill-opacity="1"><g transform="translate(51.221133, 75.214327)"><g><path d="M 23.25 -40.890625 C 28.78125 -40.890625 33.078125 -39.601562 36.140625 -37.03125 C 39.203125 -34.46875 40.757812 -30.894531 40.8125 -26.3125 L 40.8125 0 L 28.1875 0 L 28.1875 -4.640625 C 25.539062 -1.148438 21.425781 0.59375 15.84375 0.59375 C 11.613281 0.59375 8.25 -0.570312 5.75 -2.90625 C 3.257812 -5.25 2.015625 -8.289062 2.015625 -12.03125 C 2.015625 -15.875 3.347656 -18.851562 6.015625 -20.96875 C 8.679688 -23.082031 12.503906 -24.164062 17.484375 -24.21875 L 28.109375 -24.21875 L 28.109375 -24.8125 C 28.109375 -26.8125 27.445312 -28.367188 26.125 -29.484375 C 24.800781 -30.609375 22.84375 -31.171875 20.25 -31.171875 C 16.613281 -31.171875 12.601562 -30.050781 8.21875 -27.8125 L 4.5625 -36.328125 C 11.09375 -39.367188 17.320312 -40.890625 23.25 -40.890625 Z M 19.8125 -8.140625 C 21.851562 -8.140625 23.644531 -8.648438 25.1875 -9.671875 C 26.738281 -10.703125 27.710938 -12.035156 28.109375 -13.671875 L 28.109375 -17.265625 L 19.953125 -17.265625 C 16.066406 -17.265625 14.125 -15.820312 14.125 -12.9375 C 14.125 -11.4375 14.625 -10.257812 15.625 -9.40625 C 16.625 -8.5625 18.019531 -8.140625 19.8125 -8.140625 Z M 19.8125 -8.140625 "/></g></g></g><g fill="#004aad" fill-opacity="1"><g transform="translate(96.066006, 75.214327)"><g><path d="M 18.09375 -40.296875 L 18.09375 -33.484375 C 20.925781 -38.316406 25.285156 -40.785156 31.171875 -40.890625 L 31.171875 -29.234375 C 27.484375 -29.578125 24.46875 -28.960938 22.125 -27.390625 C 19.78125 -25.828125 18.4375 -23.597656 18.09375 -20.703125 L 18.09375 0 L 5.15625 0 L 5.15625 -40.296875 Z M 18.09375 -40.296875 "/></g></g></g><g fill="#004aad" fill-opacity="1"><g transform="translate(127.980615, 75.214327)"><g><path d="M 22.796875 -40.734375 C 29.773438 -40.734375 35.019531 -38.585938 38.53125 -34.296875 C 42.039062 -30.015625 43.570312 -24.140625 43.125 -16.671875 L 14.796875 -16.671875 C 15.441406 -14.273438 16.585938 -12.425781 18.234375 -11.125 C 19.878906 -9.832031 21.898438 -9.1875 24.296875 -9.1875 C 27.984375 -9.1875 31.195312 -10.5625 33.9375 -13.3125 L 40.734375 -6.65625 C 36.398438 -1.914062 30.546875 0.453125 23.171875 0.453125 C 16.640625 0.453125 11.441406 -1.414062 7.578125 -5.15625 C 3.722656 -8.894531 1.796875 -13.851562 1.796875 -20.03125 C 1.796875 -26.257812 3.722656 -31.265625 7.578125 -35.046875 C 11.441406 -38.835938 16.515625 -40.734375 22.796875 -40.734375 Z M 14.578125 -23.625 L 30.71875 -23.625 C 30.71875 -26.0625 30.007812 -28.023438 28.59375 -29.515625 C 27.175781 -31.015625 25.296875 -31.765625 22.953125 -31.765625 C 20.753906 -31.765625 18.90625 -31.03125 17.40625 -29.5625 C 15.914062 -28.09375 14.972656 -26.113281 14.578125 -23.625 Z M 14.578125 -23.625 "/></g></g></g><g fill="#004aad" fill-opacity="1"><g transform="translate(172.974974, 75.214327)"><g><path d="M 24.96875 -45.828125 C 23.625 -45.867188 22.515625 -45.503906 21.640625 -44.734375 C 20.765625 -43.960938 20.328125 -42.851562 20.328125 -41.40625 L 20.328125 -38.5 L 29.453125 -38.5 L 29.453125 -29.96875 L 20.328125 -29.96875 L 20.328125 0 L 7.546875 0 L 7.546875 -29.96875 L 2.09375 -29.96875 L 2.09375 -38.5 L 7.546875 -38.5 L 7.546875 -42.234375 C 7.546875 -46.566406 8.988281 -49.953125 11.875 -52.390625 C 14.769531 -54.835938 18.460938 -56.0625 22.953125 -56.0625 C 27.234375 -56.0625 30.992188 -55.113281 34.234375 -53.21875 L 29.671875 -44.171875 C 28.179688 -45.273438 26.613281 -45.828125 24.96875 -45.828125 Z M 24.96875 -45.828125 "/></g></g></g><g fill="#004aad" fill-opacity="1"><g transform="translate(201.825184, 75.214327)"><g><path d="M 43.875 -40.296875 L 26.46875 4.1875 C 23.46875 11.457031 18.28125 15.09375 10.90625 15.09375 C 6.625 15.09375 2.710938 13.722656 -0.828125 10.984375 L 4.5625 2.171875 C 6.351562 3.609375 8.117188 4.328125 9.859375 4.328125 C 12.160156 4.328125 13.832031 3.257812 14.875 1.125 L 15.84375 -0.890625 L -0.890625 -40.296875 L 12.40625 -40.296875 L 22.28125 -13.53125 L 31.015625 -40.296875 Z M 43.875 -40.296875 "/></g></g></g></g></g></g><g clip-path="url(#4ffed73cf9)"><g clip-path="url(#3e50818818)"><g><g clip-path="url(#f8fbb53b9a)"><g clip-path="url(#0f743c1f35)"><g clip-path="url(#006cfdca3f)"><path fill="url(#0678101c4c)" d="M 0.960938 0.835938 L 0.960938 90.164062 L 94.828125 90.164062 L 94.828125 0.835938 Z M 0.960938 0.835938 " fill-rule="nonzero"/></g></g></g></g></g></g><g transform="matrix(1, 0, 0, 1, 27, 5)"><g clip-path="url(#76505f19bc)"><g fill="#ffffff" fill-opacity="1"><g transform="translate(0.42398, 63.668497)"><g><path d="M 24.78125 -45.421875 C 28.71875 -45.421875 32.144531 -44.769531 35.0625 -43.46875 C 37.988281 -42.175781 40.226562 -40.316406 41.78125 -37.890625 C 43.34375 -35.472656 44.125 -32.597656 44.125 -29.265625 C 44.125 -25.972656 43.34375 -23.101562 41.78125 -20.65625 C 40.226562 -18.21875 37.988281 -16.347656 35.0625 -15.046875 C 32.144531 -13.753906 28.71875 -13.109375 24.78125 -13.109375 L 14.53125 -13.109375 L 14.53125 0 L 6.09375 0 L 6.09375 -45.421875 Z M 24.40625 -20.25 C 28.082031 -20.25 30.867188 -21.023438 32.765625 -22.578125 C 34.671875 -24.140625 35.625 -26.367188 35.625 -29.265625 C 35.625 -32.160156 34.671875 -34.382812 32.765625 -35.9375 C 30.867188 -37.5 28.082031 -38.28125 24.40625 -38.28125 L 14.53125 -38.28125 L 14.53125 -20.25 Z M 24.40625 -20.25 "/></g></g></g></g></g><g clip-path="url(#1a5844a714)"><path fill="#ffffff" d="M 45.105469 21.085938 L 41.9375 21.085938 L 41.9375 39.9375 L 33.460938 39.9375 L 33.460938 21.085938 L 30.289062 21.085938 L 37.699219 11.1875 Z M 45.105469 21.085938 " fill-opacity="1" fill-rule="nonzero"/></g></g></g></svg>