<svg xmlns="http://www.w3.org/2000/svg" xmlns:xlink="http://www.w3.org/1999/xlink" width="500" zoomAndPan="magnify" viewBox="0 0 375 374.999991" height="500" preserveAspectRatio="xMidYMid meet" version="1.0"><defs><g/><clipPath id="539ef00f99"><path d="M 0.566406 0.824219 L 84 0.824219 L 84 84.441406 L 0.566406 84.441406 Z M 0.566406 0.824219 " clip-rule="nonzero"/></clipPath><clipPath id="9d6a48d3be"><path d="M 13.972656 14.230469 L 70.476562 14.230469 L 70.476562 70.734375 L 13.972656 70.734375 Z M 13.972656 14.230469 " clip-rule="nonzero"/></clipPath><clipPath id="8dfe6e9b5a"><path d="M 13.972656 42.5 C 13.972656 58.113281 26.628906 70.769531 42.242188 70.769531 C 57.855469 70.769531 70.511719 58.113281 70.511719 42.5 C 70.511719 26.886719 57.855469 14.230469 42.242188 14.230469 C 26.628906 14.230469 13.972656 26.886719 13.972656 42.5 Z M 13.972656 42.5 " clip-rule="nonzero"/></clipPath><clipPath id="b5a5688e5e"><path d="M 31.148438 34.324219 L 52.984375 34.324219 L 52.984375 71.289062 L 31.148438 71.289062 Z M 31.148438 34.324219 " clip-rule="nonzero"/></clipPath><clipPath id="9f88d88192"><path d="M 40.148438 71.289062 L 44.324219 71.289062 C 49.296875 71.289062 53.324219 67.257812 53.324219 62.289062 L 53.324219 43.210938 C 53.324219 38.238281 49.296875 34.210938 44.324219 34.210938 L 40.148438 34.210938 C 35.179688 34.210938 31.148438 38.238281 31.148438 43.210938 L 31.148438 62.289062 C 31.148438 67.257812 35.179688 71.289062 40.148438 71.289062 Z M 40.148438 71.289062 " clip-rule="nonzero"/></clipPath><clipPath id="655ec8c3ae"><path d="M 91 12 L 364.839844 12 L 364.839844 73 L 91 73 Z M 91 12 " clip-rule="nonzero"/></clipPath><clipPath id="e4e04e33b8"><path d="M 42 22 L 72 22 L 72 60.679688 L 42 60.679688 Z M 42 22 " clip-rule="nonzero"/></clipPath><clipPath id="a9d0d10303"><path d="M 76 22 L 107 22 L 107 60.679688 L 76 60.679688 Z M 76 22 " clip-rule="nonzero"/></clipPath><clipPath id="7d4d49aff6"><rect x="0" width="274" y="0" height="61"/></clipPath><clipPath id="9ba9d124a8"><rect x="0" width="365" y="0" height="85"/></clipPath></defs><rect x="-37.5" width="450" fill="#ffffff" y="-37.499999" height="449.999989" fill-opacity="1"/><rect x="-37.5" width="450" fill="#270949" y="-37.499999" height="449.999989" fill-opacity="1"/><g transform="matrix(1, 0, 0, 1, 5, 145)"><g clip-path="url(#9ba9d124a8)"><g clip-path="url(#539ef00f99)"><path fill="#ff3d00" d="M 42.238281 84.167969 C 31.109375 84.167969 20.644531 79.835938 12.773438 71.964844 C 4.902344 64.09375 0.566406 53.628906 0.566406 42.496094 C 0.566406 31.367188 4.902344 20.902344 12.773438 13.03125 C 20.644531 5.160156 31.109375 0.824219 42.238281 0.824219 C 53.371094 0.824219 63.835938 5.160156 71.707031 13.03125 C 79.578125 20.902344 83.910156 31.367188 83.910156 42.496094 C 83.910156 48.699219 82.171875 54.445312 82.09375 54.707031 C 81.398438 56.980469 80.503906 59.203125 79.429688 61.328125 L 83.515625 81.972656 C 83.59375 82.378906 83.46875 82.800781 83.179688 83.097656 C 82.890625 83.394531 82.472656 83.527344 82.0625 83.457031 L 60.917969 79.75 C 58.679688 80.875 56.332031 81.800781 53.933594 82.503906 C 53.699219 82.574219 48.148438 84.167969 42.238281 84.167969 Z M 42.238281 84.167969 " fill-opacity="1" fill-rule="nonzero"/></g><g clip-path="url(#9d6a48d3be)"><g clip-path="url(#8dfe6e9b5a)"><path fill="#270949" d="M 42.234375 70.757812 C 34.6875 70.757812 27.589844 67.816406 22.25 62.480469 C 16.914062 57.140625 13.972656 50.042969 13.972656 42.496094 C 13.972656 34.945312 16.914062 27.847656 22.25 22.507812 C 27.589844 17.171875 34.6875 14.230469 42.234375 14.230469 C 49.785156 14.230469 56.882812 17.171875 62.222656 22.507812 C 67.558594 27.847656 70.5 34.945312 70.5 42.496094 C 70.5 46.699219 69.320312 50.597656 69.265625 50.777344 C 68.796875 52.316406 68.1875 53.824219 67.460938 55.265625 L 70.230469 69.265625 C 70.285156 69.542969 70.199219 69.828125 70.003906 70.03125 C 69.804688 70.230469 69.523438 70.324219 69.246094 70.273438 L 54.902344 67.761719 C 53.386719 68.523438 51.796875 69.152344 50.167969 69.628906 C 50.007812 69.675781 46.242188 70.757812 42.234375 70.757812 Z M 42.234375 70.757812 " fill-opacity="1" fill-rule="nonzero"/></g></g><g clip-path="url(#b5a5688e5e)"><g clip-path="url(#9f88d88192)"><path fill="#ffffff" d="M 53.316406 49.171875 L 48.535156 49.171875 L 48.535156 77.59375 L 35.753906 77.59375 L 35.753906 49.171875 L 30.972656 49.171875 L 42.144531 34.242188 Z M 53.316406 49.171875 " fill-opacity="1" fill-rule="nonzero"/></g></g><g clip-path="url(#655ec8c3ae)"><g transform="matrix(1, 0, 0, 1, 91, 12)"><g clip-path="url(#7d4d49aff6)"><g fill="#ffffff" fill-opacity="1"><g transform="translate(0.489241, 50.283468)"><g><path d="M 35.171875 -35.171875 L 35.171875 -14.78125 C 35.171875 -10.113281 33.726562 -6.414062 30.84375 -3.6875 C 27.96875 -0.957031 24.066406 0.40625 19.140625 0.40625 C 14.179688 0.40625 10.238281 -0.957031 7.3125 -3.6875 C 4.382812 -6.414062 2.921875 -10.113281 2.921875 -14.78125 L 2.921875 -35.171875 L 11.859375 -35.171875 L 11.859375 -14.78125 C 11.859375 -12.425781 12.535156 -10.550781 13.890625 -9.15625 C 15.242188 -7.769531 17.015625 -7.078125 19.203125 -7.078125 C 21.335938 -7.078125 23.050781 -7.765625 24.34375 -9.140625 C 25.632812 -10.515625 26.28125 -12.394531 26.28125 -14.78125 L 26.28125 -35.171875 Z M 35.171875 -35.171875 "/></g></g></g><g clip-path="url(#e4e04e33b8)"><g fill="#ffffff" fill-opacity="1"><g transform="translate(38.575389, 50.283468)"><g><path d="M 20.5 -27.390625 C 24.320312 -27.390625 27.394531 -26.109375 29.71875 -23.546875 C 32.050781 -20.984375 33.21875 -17.609375 33.21875 -13.421875 C 33.21875 -9.296875 32.078125 -5.976562 29.796875 -3.46875 C 27.515625 -0.957031 24.484375 0.296875 20.703125 0.296875 C 17.148438 0.296875 14.382812 -1.007812 12.40625 -3.625 L 12.40625 9.75 L 3.71875 9.75 L 3.71875 -27.078125 L 12.40625 -27.078125 L 12.40625 -23.515625 C 14.414062 -26.097656 17.113281 -27.390625 20.5 -27.390625 Z M 18.390625 -6.578125 C 20.203125 -6.578125 21.664062 -7.238281 22.78125 -8.5625 C 23.90625 -9.882812 24.46875 -11.582031 24.46875 -13.65625 C 24.46875 -15.738281 23.90625 -17.429688 22.78125 -18.734375 C 21.664062 -20.046875 20.203125 -20.703125 18.390625 -20.703125 C 16.648438 -20.703125 15.21875 -20.046875 14.09375 -18.734375 C 12.96875 -17.429688 12.40625 -15.742188 12.40625 -13.671875 C 12.40625 -11.554688 12.957031 -9.84375 14.0625 -8.53125 C 15.175781 -7.226562 16.617188 -6.578125 18.390625 -6.578125 Z M 18.390625 -6.578125 "/></g></g></g></g><g clip-path="url(#a9d0d10303)"><g fill="#ffffff" fill-opacity="1"><g transform="translate(72.993613, 50.283468)"><g><path d="M 20.5 -27.390625 C 24.320312 -27.390625 27.394531 -26.109375 29.71875 -23.546875 C 32.050781 -20.984375 33.21875 -17.609375 33.21875 -13.421875 C 33.21875 -9.296875 32.078125 -5.976562 29.796875 -3.46875 C 27.515625 -0.957031 24.484375 0.296875 20.703125 0.296875 C 17.148438 0.296875 14.382812 -1.007812 12.40625 -3.625 L 12.40625 9.75 L 3.71875 9.75 L 3.71875 -27.078125 L 12.40625 -27.078125 L 12.40625 -23.515625 C 14.414062 -26.097656 17.113281 -27.390625 20.5 -27.390625 Z M 18.390625 -6.578125 C 20.203125 -6.578125 21.664062 -7.238281 22.78125 -8.5625 C 23.90625 -9.882812 24.46875 -11.582031 24.46875 -13.65625 C 24.46875 -15.738281 23.90625 -17.429688 22.78125 -18.734375 C 21.664062 -20.046875 20.203125 -20.703125 18.390625 -20.703125 C 16.648438 -20.703125 15.21875 -20.046875 14.09375 -18.734375 C 12.96875 -17.429688 12.40625 -15.742188 12.40625 -13.671875 C 12.40625 -11.554688 12.957031 -9.84375 14.0625 -8.53125 C 15.175781 -7.226562 16.617188 -6.578125 18.390625 -6.578125 Z M 18.390625 -6.578125 "/></g></g></g></g><g fill="#ffffff" fill-opacity="1"><g transform="translate(107.411836, 50.283468)"><g><path d="M 15.328125 -27.390625 C 20.015625 -27.390625 23.539062 -25.945312 25.90625 -23.0625 C 28.269531 -20.1875 29.300781 -16.234375 29 -11.203125 L 9.953125 -11.203125 C 10.390625 -9.597656 11.160156 -8.359375 12.265625 -7.484375 C 13.367188 -6.617188 14.722656 -6.1875 16.328125 -6.1875 C 18.804688 -6.1875 20.96875 -7.101562 22.8125 -8.9375 L 27.390625 -4.46875 C 24.472656 -1.289062 20.535156 0.296875 15.578125 0.296875 C 11.191406 0.296875 7.695312 -0.957031 5.09375 -3.46875 C 2.5 -5.976562 1.203125 -9.3125 1.203125 -13.46875 C 1.203125 -17.65625 2.5 -21.019531 5.09375 -23.5625 C 7.695312 -26.113281 11.109375 -27.390625 15.328125 -27.390625 Z M 9.796875 -15.875 L 20.65625 -15.875 C 20.65625 -17.519531 20.175781 -18.84375 19.21875 -19.84375 C 18.257812 -20.851562 16.992188 -21.359375 15.421875 -21.359375 C 13.953125 -21.359375 12.710938 -20.863281 11.703125 -19.875 C 10.703125 -18.882812 10.066406 -17.550781 9.796875 -15.875 Z M 9.796875 -15.875 "/></g></g></g><g fill="#ffffff" fill-opacity="1"><g transform="translate(137.65968, 50.283468)"><g><path d="M 12.15625 -27.078125 L 12.15625 -22.515625 C 14.070312 -25.765625 17.003906 -27.421875 20.953125 -27.484375 L 20.953125 -19.640625 C 18.472656 -19.878906 16.445312 -19.46875 14.875 -18.40625 C 13.300781 -17.351562 12.394531 -15.859375 12.15625 -13.921875 L 12.15625 0 L 3.46875 0 L 3.46875 -27.078125 Z M 12.15625 -27.078125 "/></g></g></g><g fill="#ff3d00" fill-opacity="1"><g transform="translate(159.117134, 50.283468)"><g><path d="M 15.28125 -27.390625 C 17.957031 -27.390625 20.34375 -26.859375 22.4375 -25.796875 C 24.53125 -24.742188 26.164062 -23.25 27.34375 -21.3125 L 21.109375 -17.53125 C 19.765625 -19.40625 17.9375 -20.34375 15.625 -20.34375 C 13.945312 -20.34375 12.582031 -19.710938 11.53125 -18.453125 C 10.476562 -17.203125 9.953125 -15.554688 9.953125 -13.515625 C 9.953125 -11.441406 10.46875 -9.773438 11.5 -8.515625 C 12.539062 -7.265625 13.914062 -6.640625 15.625 -6.640625 C 18.175781 -6.640625 20.019531 -7.660156 21.15625 -9.703125 L 27.484375 -5.984375 C 26.378906 -3.972656 24.765625 -2.421875 22.640625 -1.328125 C 20.515625 -0.242188 18.023438 0.296875 15.171875 0.296875 C 10.984375 0.296875 7.609375 -0.960938 5.046875 -3.484375 C 2.484375 -6.015625 1.203125 -9.34375 1.203125 -13.46875 C 1.203125 -17.625 2.5 -20.984375 5.09375 -23.546875 C 7.695312 -26.109375 11.09375 -27.390625 15.28125 -27.390625 Z M 15.28125 -27.390625 "/></g></g></g><g fill="#ff3d00" fill-opacity="1"><g transform="translate(187.355144, 50.283468)"><g><path d="M 21.5 -27.484375 C 24.488281 -27.484375 26.882812 -26.535156 28.6875 -24.640625 C 30.5 -22.753906 31.40625 -20.234375 31.40625 -17.078125 L 31.40625 0 L 22.71875 0 L 22.71875 -14.671875 C 22.71875 -16.242188 22.289062 -17.488281 21.4375 -18.40625 C 20.582031 -19.332031 19.414062 -19.796875 17.9375 -19.796875 C 16.257812 -19.796875 14.914062 -19.191406 13.90625 -17.984375 C 12.90625 -16.785156 12.40625 -15.242188 12.40625 -13.359375 L 12.40625 0 L 3.71875 0 L 3.71875 -37.28125 L 12.40625 -37.28125 L 12.40625 -22.609375 C 14.320312 -25.796875 17.351562 -27.421875 21.5 -27.484375 Z M 21.5 -27.484375 "/></g></g></g><g fill="#ff3d00" fill-opacity="1"><g transform="translate(221.421639, 50.283468)"><g><path d="M 15.625 -27.484375 C 19.34375 -27.484375 22.234375 -26.617188 24.296875 -24.890625 C 26.359375 -23.171875 27.40625 -20.769531 27.4375 -17.6875 L 27.4375 0 L 18.9375 0 L 18.9375 -3.109375 C 17.164062 -0.765625 14.40625 0.40625 10.65625 0.40625 C 7.800781 0.40625 5.535156 -0.378906 3.859375 -1.953125 C 2.191406 -3.535156 1.359375 -5.582031 1.359375 -8.09375 C 1.359375 -10.664062 2.253906 -12.664062 4.046875 -14.09375 C 5.835938 -15.519531 8.410156 -16.25 11.765625 -16.28125 L 18.890625 -16.28125 L 18.890625 -16.6875 C 18.890625 -18.019531 18.445312 -19.0625 17.5625 -19.8125 C 16.675781 -20.570312 15.363281 -20.953125 13.625 -20.953125 C 11.175781 -20.953125 8.476562 -20.195312 5.53125 -18.6875 L 3.0625 -24.421875 C 7.445312 -26.460938 11.632812 -27.484375 15.625 -27.484375 Z M 13.3125 -5.484375 C 14.6875 -5.484375 15.890625 -5.820312 16.921875 -6.5 C 17.960938 -7.1875 18.617188 -8.085938 18.890625 -9.203125 L 18.890625 -11.609375 L 13.421875 -11.609375 C 10.804688 -11.609375 9.5 -10.632812 9.5 -8.6875 C 9.5 -7.6875 9.832031 -6.898438 10.5 -6.328125 C 11.164062 -5.765625 12.101562 -5.484375 13.3125 -5.484375 Z M 13.3125 -5.484375 "/></g></g></g><g fill="#ff3d00" fill-opacity="1"><g transform="translate(251.568989, 50.283468)"><g><path d="M 19.25 -7.484375 L 20.953125 -1.453125 C 18.835938 -0.210938 16.425781 0.40625 13.71875 0.40625 C 11.039062 0.40625 8.867188 -0.335938 7.203125 -1.828125 C 5.546875 -3.316406 4.71875 -5.4375 4.71875 -8.1875 L 4.71875 -20.15625 L 0.953125 -20.15625 L 0.953125 -25.828125 L 4.71875 -25.828125 L 4.71875 -33.359375 L 13.359375 -33.359375 L 13.359375 -25.875 L 20.453125 -25.875 L 20.453125 -20.15625 L 13.359375 -20.15625 L 13.359375 -9.546875 C 13.359375 -8.503906 13.566406 -7.738281 13.984375 -7.25 C 14.410156 -6.769531 15.039062 -6.546875 15.875 -6.578125 C 16.675781 -6.578125 17.800781 -6.878906 19.25 -7.484375 Z M 19.25 -7.484375 "/></g></g></g></g></g></g></g></g></svg>